<svg t="1680484255813" class="icon" viewBox="0 0 1024 1024" version="1.1" xmlns="http://www.w3.org/2000/svg" p-id="2603" width="200" height="200"><path d="M927.63173 817.408a33.894 33.894 0 0 0-9.062-23.245 30.106 30.106 0 0 0-21.913-9.574H125.07173a30.26 30.26 0 0 0-31.437 14.182 34.458 34.458 0 0 0 0 36.199 30.31 30.31 0 0 0 31.437 14.182h771.584c16.691 0 30.464-14.029 30.976-31.744z m-713.42 89.754c-16.896 0.307-30.464 14.899-30.464 32.768 0 17.92 13.568 32.563 30.464 32.87h587.11c17.152 0 31.028-14.643 31.079-32.82 0-18.124-13.875-32.818-31.027-32.818H214.21173z m617.728-588.084a30.72 30.72 0 0 0-24.371-12.134 30.72 30.72 0 0 0-24.32 12.134l-129.434 159.13L366.73673 64.41a30.464 30.464 0 0 0-24.883-13.21 30.874 30.874 0 0 0-25.19 15.002L4.64873 675.635a32.41 32.41 0 0 0-0.768 32.103 30.874 30.874 0 0 0 26.983 16.384h4.403v2.406h966.912l-2.048-2.406a31.334 31.334 0 0 0 22.016-20.07 32.358 32.358 0 0 0-4.352-29.85L831.88873 319.078z" p-id="2604"></path></svg>